<svg width="25" height="24" viewBox="0 0 25 24" fill="none" xmlns="http://www.w3.org/2000/svg">
<path d="M6.81156 20.2894C7.80679 20.2894 8.62215 21.1222 8.62215 22.1508C8.62215 23.1673 7.80679 24 6.81156 24C5.80435 24 4.98898 23.1673 4.98898 22.1508C4.98898 21.1222 5.80435 20.2894 6.81156 20.2894ZM20.3011 20.2894C21.2963 20.2894 22.1116 21.1222 22.1116 22.1508C22.1116 23.1673 21.2963 24 20.3011 24C19.2938 24 18.4785 23.1673 18.4785 22.1508C18.4785 21.1222 19.2938 20.2894 20.3011 20.2894ZM1.23386 0.000143388L1.35606 0.010486L4.21583 0.450121C4.62351 0.524823 4.92328 0.866489 4.95925 1.28286L5.18707 4.02599C5.22304 4.41909 5.5348 4.71299 5.9185 4.71299H22.1119C22.8433 4.71299 23.3229 4.97016 23.8026 5.53348C24.2822 6.0968 24.3661 6.90505 24.2582 7.63859L23.1191 15.672C22.9033 17.2163 21.6083 18.3539 20.0855 18.3539H7.00365C5.4089 18.3539 4.08992 17.1061 3.95803 15.4896L2.85489 2.14008L1.0443 1.82169C0.564672 1.73596 0.228934 1.25836 0.312868 0.76852C0.396803 0.267654 0.864438 -0.0642153 1.35606 0.010486L1.23386 0.000143388ZM18.167 9.24283H14.8455C14.3419 9.24283 13.9462 9.64695 13.9462 10.1613C13.9462 10.6634 14.3419 11.0797 14.8455 11.0797H18.167C18.6706 11.0797 19.0663 10.6634 19.0663 10.1613C19.0663 9.64695 18.6706 9.24283 18.167 9.24283Z" fill="#29303E"/>
</svg>
